<?xml version="1.0" encoding="UTF-8" standalone="no"?>
<!-- Generator: Adobe Illustrator 23.1.0, SVG Export Plug-In . SVG Version: 6.00 Build 0)  -->

<svg
   version="1.1"
   id="Layer_1"
   x="0px"
   y="0px"
   viewBox="0 0 714.391 714.391"
   enable-background="new 0 0 1354.105 714.391"
   xml:space="preserve"
   sodipodi:docname="KMN_Logo_favicon.svg"
   width="714.39099"
   height="714.39099"
   inkscape:version="1.2.1 (9c6d41e410, 2022-07-14)"
   xmlns:inkscape="http://www.inkscape.org/namespaces/inkscape"
   xmlns:sodipodi="http://sodipodi.sourceforge.net/DTD/sodipodi-0.dtd"
   xmlns="http://www.w3.org/2000/svg"
   xmlns:svg="http://www.w3.org/2000/svg"
   xmlns:ns="&amp;ns_sfw;"><defs
   id="defs268" /><sodipodi:namedview
   id="namedview266"
   pagecolor="#ffffff"
   bordercolor="#000000"
   borderopacity="0.25"
   inkscape:showpageshadow="2"
   inkscape:pageopacity="0.0"
   inkscape:pagecheckerboard="0"
   inkscape:deskcolor="#d1d1d1"
   showgrid="false"
   inkscape:zoom="0.57159526"
   inkscape:cx="502.10353"
   inkscape:cy="356.89589"
   inkscape:window-width="1366"
   inkscape:window-height="705"
   inkscape:window-x="-8"
   inkscape:window-y="-8"
   inkscape:window-maximized="1"
   inkscape:current-layer="Layer_1" />
<metadata
   id="metadata201">
	<ns:sfw>
		<ns:slices />
		<ns:sliceSourceBounds
   bottomLeftOrigin="true"
   height="714.391"
   width="1354.105"
   x="33.206"
   y="4904.779" />
	</ns:sfw>
</metadata>
<path
   fill-rule="evenodd"
   clip-rule="evenodd"
   d="M 370.878,114.458 143.104,114.611 142.142,667.802 32.066,668.035 32,712.899 c 33.964,-0.539 157.541,6.239 177.721,-5.305 59.947,-34.29 65.048,-47.034 58.948,-124.403 -3.39,-42.999 -10.958,-33.088 -39.389,-52.26 -67.797,-45.716 -24.185,-208.161 -12.253,-211.58 l 99.316,0.105 0.111,215.14 c 70.22,-29.435 40.492,-175.666 23.114,-214.629 l -23.02,-1.356 c 0.267,-57.154 -2.177,-69.849 32.144,-98.765 31.933,-26.904 20.43,-43.61 22.186,-105.388"
   id="path203" />
<path
   fill-rule="evenodd"
   clip-rule="evenodd"
   d="m 443.023,114.448 c -2.645,119.914 5.015,75.466 39.718,122.905 22.746,31.093 14.164,104.515 14.173,148.435 0.02,107.403 -3.381,220.329 0.262,327.032 l 184.932,-0.089 0.601,-44.829 -109.575,0.127 -0.776,-553.383 z"
   id="path205" />
<polygon
   fill-rule="evenodd"
   clip-rule="evenodd"
   points="411.023,114.448 411.008,0.393 339.362,0 338.878,114.458 "
   id="polygon207"
   transform="translate(32)" />
<path
   fill-rule="evenodd"
   clip-rule="evenodd"
   d="m 316.316,688.771 0.283,-151.588 c -35.734,6.466 -33.194,39.395 -33.277,74.663 -0.106,44.85 2.081,62.186 32.994,76.925"
   id="path209" />
<path
   fill-rule="evenodd"
   clip-rule="evenodd"
   d="m 316.596,712.54 32.201,0.142 -14.647,-11.988 c -7.534,-4.933 -8.724,-6.219 -17.855,-9.573 z"
   id="path211" />



</svg>
